<svg id="Calque_1" data-name="Calque 1" xmlns="http://www.w3.org/2000/svg" viewBox="0 0 782 778"><defs><style>.cls-1{fill:#fff;}</style></defs><title>Plan de travail 1</title><path class="cls-1" d="M776,362.54c-.11-30.34.32-60.69-.66-91-.5-15.44-1.14-30.88-1.72-46.33-.34-9-1.26-17.88-2.45-26.72a268.83,268.83,0,0,0-9.41-44.08,227.47,227.47,0,0,0-14.86-36.95c-11.42-22.11-27-41-45.76-57.32a187.07,187.07,0,0,0-40.5-27C638.91,22.4,616,15.76,592.33,11.76c-15.64-2.64-31.46-3.66-47.26-4.43-14.16-.69-28.35-1.49-42.5-1.45-84,.25-168.09-1.73-252.11,1.24-12.28.43-24.52,1.12-36.76,2.18A282.17,282.17,0,0,0,167.92,17a220.75,220.75,0,0,0-47.09,17.9A183,183,0,0,0,83.64,60.43a208,208,0,0,0-32,35C39.57,112.44,31,131.14,24.47,151a263.84,263.84,0,0,0-10.63,48.29c-1.56,11.93-2.5,24-3,36-.59,14.43-1.36,28.87-1.5,43.3q-.55,56-.24,112.1c.2,38.2-.52,76.41.7,114.61.58,18.27,1.09,36.54,2.23,54.79.62,10,1.75,20,3.33,29.82a230.1,230.1,0,0,0,30.32,83.87c6.61,10.75,14.61,20.3,23,29.59,10.18,11.26,21.87,20.8,34.25,29.54a148.92,148.92,0,0,0,24,13.65c12.81,5.83,25.93,11.17,39.82,14.16,9.58,2.07,19.07,4.37,28.8,5.87,12.51,1.93,25.09,3,37.61,3.93,14.21,1,28.53,1.46,42.78,1.61,39.37.43,78.74.15,118.11.15v.09c7.37,0,14.75.09,22.12,0,38.28-.56,76.56,1.07,114.84-1.29,13.71-.84,27.46-1.08,41.17-2.38,7-.67,14-1.32,20.89-2.5a272.47,272.47,0,0,0,47-12.44,196.6,196.6,0,0,0,108.41-96.64c10.78-22.05,17.53-45.27,21.41-69.46,2.39-14.88,3.35-29.87,4.25-44.87.87-14.55,1.43-29.14,1.51-43.72Q776.1,430.77,776,362.54ZM707.33,511.88c-.16,12.21-.73,24.43-1.51,36.61-1.11,17.1-2.94,34.14-7.49,50.71-5.79,21.12-15,40.44-30.12,56.7-10.57,11.39-22.33,21.2-36.37,28a160.43,160.43,0,0,1-41,13.51,278.68,278.68,0,0,1-35.5,4.49c-9.29.5-18.59,1-27.89,1.36-75.79,2.63-151.6,1.12-227.4,1.3-8.93,0-17.95,0-26.85-.71-8.59-.71-17.17-.08-25.72-.7-14.7-1.06-29.42-1.62-44-4.16-9.84-1.72-19.68-3.38-29.11-6.51-9.75-3.22-19.35-7-28.2-12.42a139,139,0,0,1-30.46-25.59A117,117,0,0,1,96.08,625a157,157,0,0,1-11.19-33.93,265.85,265.85,0,0,1-5.2-38c-.67-11.18-1.09-22.34-1.48-33.53C75.68,446,77,372.43,77.12,298.88q0-14,.45-28.09c.42-13.94.71-27.9,1.6-41.82,1.32-20.49,3.83-40.86,10.58-60.38,6.35-18.34,15.48-35,29.4-49C129.8,108.89,141.32,99.68,155,93.21a167,167,0,0,1,45.56-13.95,367,367,0,0,1,41.75-3.87c15.55-.66,31.1-1.11,46.66-1.44,60.71-1.32,121.42-.42,182.14-.52,15.23,0,30.47.34,45.7.74,11.45.29,22.9.7,34.33,1.45,23,1.49,45.67,4.41,67.38,12.73,15.76,6.05,29.95,14.44,42.22,26.2,11.62,11.13,21.46,23.49,28.14,38.17a178.76,178.76,0,0,1,13.33,43.78c3.11,17.93,3.82,36.06,4.49,54.19,2,52.56,1.49,105.15,1.54,165.28C708.63,442.92,707.8,477.4,707.33,511.88Z"/><path class="cls-1" d="M551.48,184.11c0-25,21-45.66,46.57-45.31,23.89.32,44.84,20.43,44.65,46.2-.19,24.42-21,45.25-45.82,45C571.67,229.67,551.81,209.62,551.48,184.11Z"/><path class="cls-1" d="M393.05,192.37c-108.5-.21-196.59,88.15-197.19,195.58-.6,108.44,88.45,198.92,197.7,197.58,107,.15,195.06-88.51,195.6-195.28C589.71,281.18,500.63,192.59,393.05,192.37Zm.36,325.36c-71.88.46-129.26-56.33-129.81-128.83.72-71.46,56.65-128.34,128.42-128.63C464.15,260,521.4,317.37,521.18,389,521,461.54,464.34,517.27,393.41,517.73Z"/></svg>